####
#
# OBJ File Generated by Meshlab
#
####
# Object iris_wheel.obj
#
# Vertices: 375
# Faces: 750
#
####
vn 0.332695 0.874014 0.354139
v 0.002380 0.016945 0.089172
vn 0.653368 -0.176691 0.736132
v 0.001480 0.003574 0.094849
vn 0.077913 -0.697182 0.712648
v 0.002380 -0.016853 0.089172
vn 0.526240 0.586061 0.616120
v 0.000977 0.016945 0.098038
vn 0.698421 0.707109 0.110480
v 0.001389 0.016945 0.095436
vn 0.651552 -0.176828 0.737707
v 0.001297 0.007835 0.096039
vn 0.618956 -0.092908 0.779911
v 0.000977 0.015070 0.098038
vn -0.612682 -0.094111 0.784706
v -0.000427 0.015055 0.098038
vn -0.521730 0.586847 0.619200
v -0.000427 0.016945 0.098038
vn 0.846654 -0.093451 0.523873
v 0.034470 0.015055 0.091881
vn -0.308915 -0.093132 0.946519
v 0.033142 0.015055 0.092361
vn -0.277845 0.586592 0.760731
v 0.033142 0.016945 0.092361
vn 0.216795 -0.585678 0.781013
v 0.028687 -0.016853 0.084549
vn -0.190354 0.872276 0.450444
v 0.028687 0.016945 0.084549
vn 0.259640 -0.117436 0.958538
v 0.025070 -0.016853 0.085678
vn 0.125020 0.692585 0.710420
v 0.015701 0.016945 0.087852
vn 0.108263 -0.120725 0.986765
v 0.011002 -0.016853 0.088547
vn 0.154741 -0.576320 0.802441
v 0.015701 -0.016853 0.087852
vn 0.433844 0.873974 0.218973
v 0.032761 0.016945 0.083069
vn 0.862941 -0.176553 0.473458
v 0.033859 0.003574 0.088715
vn 0.328058 -0.644009 0.691108
v 0.032761 -0.016853 0.083069
vn 0.705423 0.586728 0.397655
v 0.034470 0.016945 0.091873
vn 0.858767 -0.177987 0.480459
v 0.034195 0.009966 0.090477
vn 0.972832 -0.099480 0.209048
v 0.063828 0.015055 0.074638
vn 0.031371 -0.094548 0.995026
v 0.062744 0.015055 0.075546
vn -0.006896 0.587494 0.809199
v 0.062744 0.016945 0.075546
vn 0.424579 -0.662422 0.617195
v 0.055878 -0.016853 0.069725
vn -0.024527 0.872394 0.488187
v 0.055878 0.016945 0.069725
vn 0.561287 -0.101000 0.821436
v 0.050919 -0.016853 0.073410
vn 0.360394 0.693046 0.624342
v 0.044815 0.016945 0.077263
vn 0.427656 -0.142394 0.892656
v 0.038498 -0.016853 0.080589
vn 0.405124 -0.586441 0.701400
v 0.044815 -0.016853 0.077263
vn 0.482511 0.874019 0.057214
v 0.059204 0.016945 0.066940
vn 0.549188 -0.621470 0.558720
v 0.059204 -0.016853 0.066940
vn 0.047848 0.952890 0.299517
v 0.063400 0.012098 0.073921
vn 0.800748 0.582933 0.137807
v 0.063843 0.016945 0.074646
vn -0.438492 0.234405 -0.867628
v 0.063995 0.016148 0.074905
vn 0.984514 -0.099504 -0.144328
v 0.085510 0.015020 0.048393
vn 0.375256 -0.094758 0.922065
v 0.084824 0.015055 0.049614
vn 0.274825 0.586884 0.761602
v 0.084824 0.016945 0.049614
vn 0.579720 -0.694736 0.425753
v 0.076370 -0.016853 0.046494
vn 0.144140 0.872289 0.467264
v 0.076370 0.016945 0.046494
vn 0.800350 -0.115184 0.588365
v 0.071564 -0.016853 0.053581
vn 0.552310 0.692592 0.463973
v 0.068558 0.016945 0.057365
vn 0.696561 -0.140914 0.703525
v 0.062042 -0.016853 0.064331
vn 0.616819 -0.577120 0.535226
v 0.068558 -0.016853 0.057365
vn 0.473910 0.873444 -0.111828
v 0.078552 0.016945 0.042740
vn 0.965434 -0.176667 -0.191640
v 0.083023 0.003574 0.046356
vn 0.757995 -0.526002 0.385701
v 0.078552 -0.016853 0.042740
vn 0.797753 0.584936 -0.146422
v 0.085526 0.016945 0.048401
vn 0.874714 -0.093332 -0.475567
v 0.096939 0.015055 0.016304
vn 0.666394 -0.093858 0.739669
v 0.096695 0.015055 0.017700
vn 0.698047 0.586992 -0.410087
v 0.096939 0.016945 0.016312
vn 0.519333 0.586808 0.621248
v 0.096695 0.016945 0.017700
vn 0.759083 -0.610413 0.226251
v 0.087692 -0.016853 0.017662
vn 0.295311 0.871881 0.390660
v 0.087692 0.016945 0.017662
vn 0.943060 -0.160977 0.291073
v 0.084869 -0.016853 0.028244
vn 0.678220 0.691881 0.247625
v 0.084061 0.016945 0.030540
vn 0.887500 -0.162857 0.431070
v 0.079239 -0.016853 0.041451
vn 0.792359 -0.518946 0.320722
v 0.084061 -0.016853 0.030540
vn 0.406831 0.873320 -0.267958
v 0.088440 0.016945 0.013390
vn 0.899027 -0.435521 0.045523
v 0.088440 -0.016853 0.013390
vn 0.229430 0.707358 -0.668585
v 0.094391 0.016945 0.015434
vn 0.840445 -0.176753 -0.512261
v 0.094803 0.007002 0.015572
vn 0.878583 -0.093458 0.468356
v 0.096924 0.015055 -0.016350
vn 0.515093 0.585005 -0.626457
v 0.096680 0.016945 -0.017738
vn 0.700156 0.586838 0.406698
v 0.096924 0.016945 -0.016350
vn 0.411320 0.871445 0.267207
v 0.088455 0.016945 -0.013313
vn 0.842583 -0.174869 0.509387
v 0.093857 0.003500 -0.015251
vn 0.889482 -0.454734 -0.045160
v 0.088455 -0.016853 -0.013313
vn 0.996761 -0.080420 0.000327
v 0.089447 -0.016853 0.000000
vn 0.723146 0.690695 0.000422
v 0.089447 0.016945 0.000038
vn -0.011616 0.707114 -0.707004
v 0.094208 0.016945 -0.017693
vn 0.291255 0.873586 -0.389896
v 0.087708 0.016945 -0.017586
vn 0.615761 -0.176364 -0.767941
v 0.093460 0.003574 -0.017685
vn 0.760181 -0.609064 -0.226199
v 0.087708 -0.016853 -0.017586
vn 0.662181 -0.095628 -0.743217
v 0.096680 0.015041 -0.017731
vn 0.981097 -0.107185 0.161121
v 0.085510 0.015055 -0.048424
vn 0.791887 0.576412 0.201655
v 0.085510 0.016945 -0.048424
vn 0.765524 -0.510748 -0.391291
v 0.078583 -0.016853 -0.042671
vn 0.477172 0.871940 0.109667
v 0.078583 0.016945 -0.042671
vn 0.886738 -0.162773 -0.432667
v 0.079239 -0.016853 -0.041451
vn 0.678531 0.691722 -0.247218
v 0.084091 0.016945 -0.030472
vn 0.943458 -0.161015 -0.289759
v 0.084869 -0.016853 -0.028244
vn 0.792360 -0.519458 -0.319888
v 0.084091 -0.016853 -0.030472
vn 0.140246 0.873931 -0.465377
v 0.076416 0.016945 -0.046432
vn 0.314885 -0.176722 -0.932532
v 0.081787 0.003574 -0.048492
vn 0.577823 -0.697736 -0.423420
v 0.076416 -0.016853 -0.046432
vn 0.683368 0.392840 0.615374
v 0.084793 0.016001 -0.049652
vn 0.535505 0.457461 -0.709904
v 0.085297 0.016945 -0.049843
vn 0.973748 -0.093178 -0.207683
v 0.063797 0.015055 -0.074669
vn 0.797538 0.586640 -0.140663
v 0.063797 0.016945 -0.074669
vn 0.566747 -0.588693 -0.576401
v 0.059265 -0.016853 -0.066887
vn 0.485640 0.872046 -0.060747
v 0.059265 0.016945 -0.066887
vn 0.700457 -0.112404 -0.704788
v 0.062042 -0.016853 -0.064323
vn 0.552513 0.692677 -0.463602
v 0.068604 0.016945 -0.057304
vn 0.800119 -0.115192 -0.588676
v 0.071564 -0.016853 -0.053581
vn 0.618120 -0.574576 -0.536460
v 0.068604 -0.016853 -0.057304
vn -0.026857 0.873957 -0.485262
v 0.055939 0.016945 -0.069679
vn -0.014518 -0.176273 -0.984234
v 0.060287 0.003574 -0.073456
vn 0.435274 -0.642554 -0.630604
v 0.055939 -0.016853 -0.069679
vn 0.021178 -0.097114 -0.995048
v 0.062698 0.015022 -0.075584
vn -0.013460 0.585593 -0.810493
v 0.062698 0.016945 -0.075584
vn -0.465596 0.708575 -0.530229
v 0.060745 0.016945 -0.073845
vn -0.022258 -0.176167 -0.984109
v 0.061188 0.007835 -0.074226
vn -0.314842 -0.096117 -0.944265
v 0.033112 0.015049 -0.092377
vn 0.844903 -0.094531 -0.526501
v 0.034439 0.015055 -0.091896
vn 0.703054 0.586929 -0.401533
v 0.034439 0.016945 -0.091896
vn 0.321758 -0.663384 -0.675569
v 0.032822 -0.016853 -0.083038
vn 0.434864 0.872555 -0.222581
v 0.032822 0.016945 -0.083038
vn 0.427244 -0.142380 -0.892855
v 0.038498 -0.016853 -0.080589
vn 0.360830 0.692915 -0.624236
v 0.044891 0.016945 -0.077225
vn 0.561828 -0.100965 -0.821070
v 0.050919 -0.016853 -0.073410
vn 0.404781 -0.588100 -0.700208
v 0.044891 -0.016853 -0.077225
vn -0.191870 0.873982 -0.446476
v 0.028763 0.016945 -0.084526
vn -0.359093 -0.176445 -0.916471
v 0.031540 0.003574 -0.089554
vn 0.209786 -0.620267 -0.755817
v 0.028748 -0.016853 -0.084526
vn -0.283341 0.584946 -0.759971
v 0.033112 0.016945 -0.092384
vn 0.612587 -0.093040 -0.784908
v 0.000946 0.015055 -0.098038
vn 0.522283 0.586750 -0.618825
v 0.000946 0.016945 -0.098038
vn 0.078709 -0.695921 -0.713792
v 0.002457 -0.016853 -0.089172
vn 0.332769 0.872390 -0.358051
v 0.002457 0.016945 -0.089172
vn 0.108947 -0.120712 -0.986691
v 0.011002 -0.016853 -0.088547
vn 0.125620 0.692655 -0.710246
v 0.015778 0.016945 -0.087837
vn 0.260222 -0.117443 -0.958380
v 0.025070 -0.016853 -0.085678
vn 0.155012 -0.576673 -0.802134
v 0.015778 -0.016853 -0.087837
vn -0.529200 0.582848 -0.616632
v -0.000473 0.016945 -0.098038
vn -0.333810 0.873277 -0.354906
v -0.001877 0.016945 -0.089180
vn -0.619380 -0.101912 -0.778449
v -0.000458 0.014990 -0.098022
vn -0.045382 -0.521251 -0.852196
v -0.001877 -0.016853 -0.089180
vn -0.850617 -0.094930 -0.517146
v -0.033951 0.015059 -0.091873
vn 0.304663 -0.095211 -0.947690
v -0.032639 0.015055 -0.092361
vn 0.277756 0.586767 -0.760629
v -0.032639 0.016945 -0.092361
vn -0.183522 -0.609541 -0.771220
v -0.028168 -0.016853 -0.084549
vn 0.190462 0.871878 -0.451168
v -0.028168 0.016945 -0.084549
vn -0.221300 -0.173122 -0.959716
v -0.017593 -0.016853 -0.087395
vn -0.124880 0.691764 -0.711244
v -0.015198 0.016945 -0.087852
vn -0.070883 -0.121387 -0.990071
v -0.003342 -0.016853 -0.089127
vn -0.119218 -0.525122 -0.842635
v -0.015198 -0.016853 -0.087852
vn -0.435601 0.873158 -0.218741
v -0.032242 0.016945 -0.083069
vn -0.862463 -0.176474 -0.474356
v -0.033340 0.003574 -0.088715
vn -0.407287 -0.444318 -0.797934
v -0.032242 -0.016853 -0.083069
vn -0.705556 0.585763 -0.398839
v -0.033951 0.016945 -0.091881
vn -0.975483 -0.097834 -0.197131
v -0.063309 0.015036 -0.074631
vn -0.037658 -0.094440 -0.994818
v -0.062241 0.015055 -0.075546
vn 0.000661 0.586594 -0.809881
v -0.062241 0.016945 -0.075546
vn 0.025732 0.871558 -0.489616
v -0.055374 0.016945 -0.069725
vn 0.018377 -0.175203 -0.984361
v -0.059753 0.003500 -0.073441
vn -0.482342 -0.462838 -0.743725
v -0.055374 -0.016853 -0.069725
vn -0.495009 -0.143345 -0.856982
v -0.044342 -0.016853 -0.077248
vn -0.361343 0.690669 -0.626424
v -0.044312 0.016945 -0.077263
vn -0.606596 0.706905 0.363768
v -0.061966 0.016945 -0.072380
vn -0.483202 0.873638 -0.057210
v -0.058701 0.016945 -0.066940
vn -0.973236 -0.176134 -0.147611
v -0.061661 0.003574 -0.071869
vn -0.575654 -0.609111 -0.545533
v -0.058701 -0.016853 -0.066940
vn -0.801315 0.583858 -0.130401
v -0.063324 0.016945 -0.074631
vn -0.348604 -0.106733 -0.931173
v -0.084305 0.015055 -0.049614
vn 0.188036 0.395816 -0.898873
v -0.085007 0.016001 -0.048393
vn -0.219572 0.576634 -0.786944
v -0.084305 0.016945 -0.049614
vn -0.720095 -0.512619 -0.467637
v -0.075867 -0.016853 -0.046494
vn -0.143582 0.871931 -0.468103
v -0.075867 0.016945 -0.046494
vn -0.817177 -0.171748 -0.550203
v -0.075134 -0.016853 -0.047676
vn -0.553327 0.691706 -0.464082
v -0.068054 0.016945 -0.057365
vn -0.727036 -0.115921 -0.676743
v -0.066513 -0.016853 -0.059151
vn -0.676006 -0.513723 -0.528304
v -0.068054 -0.016853 -0.057365
vn -0.472672 0.874204 0.111126
v -0.078033 0.016945 -0.042740
vn -0.658982 -0.693548 -0.291091
v -0.078033 -0.016853 -0.042740
vn -0.881299 0.459784 -0.109134
v -0.085434 0.016945 -0.048721
vn -0.444233 0.707339 0.549845
v -0.083450 0.016945 -0.047119
vn -0.965085 -0.176714 0.193349
v -0.083542 0.008280 -0.047188
vn -0.644810 -0.106956 -0.756823
v -0.096176 0.015055 -0.017700
vn -0.129853 0.391724 -0.910873
v -0.096420 0.016001 -0.016312
vn -0.474291 0.576661 -0.665215
v -0.096176 0.016945 -0.017700
vn -0.785236 -0.584888 -0.203252
v -0.087173 -0.016853 -0.017662
vn -0.295330 0.872238 -0.389847
v -0.087173 0.016945 -0.017662
vn -0.954417 -0.161055 -0.251297
v -0.086349 -0.016853 -0.021347
vn -0.677913 0.692471 -0.246816
v -0.083557 0.016945 -0.030540
vn -0.772196 -0.576503 -0.267129
v -0.083557 -0.016853 -0.030540
vn -0.230050 0.706991 0.668760
v -0.093369 0.016945 -0.015259
vn -0.406478 0.874043 0.266129
v -0.087936 0.016945 -0.013390
vn -0.760152 -0.646847 -0.061299
v -0.087936 -0.016853 -0.013390
vn -0.868111 0.456870 0.194042
v -0.096939 0.016945 -0.016487
vn -0.840273 -0.176713 0.512557
v -0.093933 0.005705 -0.015457
vn -0.866016 -0.107653 -0.488290
v -0.096420 0.015055 0.016350
vn -0.427040 0.394024 -0.813869
v -0.096176 0.016001 0.017738
vn -0.673461 0.576812 -0.462318
v -0.096420 0.016945 0.016350
vn -0.745667 -0.663705 0.058961
v -0.087936 -0.016853 0.013313
vn -0.410398 0.872526 -0.265090
v -0.087936 0.016945 0.013313
vn -0.983588 -0.162854 0.077681
v -0.088654 -0.016853 0.007179
vn -0.721050 0.692883 -0.000036
v -0.088943 0.016945 -0.000038
vn -0.983625 -0.162869 -0.077175
v -0.088654 -0.016853 -0.007179
vn -0.806378 -0.591401 -0.000137
v -0.088943 -0.016853 -0.000038
vn 0.011827 0.706834 0.707281
v -0.092941 0.016945 0.017685
vn -0.291139 0.873863 0.389361
v -0.087189 0.016945 0.017586
vn -0.756590 -0.623859 0.195889
v -0.087189 -0.016853 0.017586
vn -0.747072 0.457519 0.482245
v -0.096710 0.016945 0.017746
vn -0.615058 -0.176891 0.768383
v -0.093704 0.006268 0.017693
vn -0.985707 -0.094476 -0.139482
v -0.084991 0.015055 0.048424
vn -0.796523 0.587078 -0.144536
v -0.084991 0.016945 0.048424
vn -0.657406 -0.695721 0.289464
v -0.078064 -0.016853 0.042671
vn -0.476556 0.872375 -0.108887
v -0.078064 0.016945 0.042671
vn -0.910036 -0.107084 0.400459
v -0.081802 -0.016853 0.034966
vn -0.677916 0.692628 0.246366
v -0.083572 0.016945 0.030472
vn -0.954380 -0.161039 0.251447
v -0.086349 -0.016853 0.021347
vn -0.772896 -0.575798 0.266624
v -0.083572 -0.016853 0.030472
vn -0.272608 0.585262 0.763645
v -0.084290 0.016945 0.049652
vn -0.140114 0.873464 0.466292
v -0.075897 0.016945 0.046432
vn -0.720156 -0.514878 0.465055
v -0.075897 -0.016853 0.046432
vn -0.347396 -0.093403 0.933055
v -0.084274 0.015043 0.049660
vn -0.314821 -0.176891 0.932522
v -0.082855 0.009602 0.049095
vn -0.977282 -0.107618 0.182590
v -0.063293 0.015055 0.074661
vn -0.851122 0.396322 -0.344268
v -0.062210 0.016001 0.075569
vn -0.813046 0.576754 0.079449
v -0.063293 0.016945 0.074661
vn -0.579767 -0.602751 0.548235
v -0.058746 -0.016853 0.066887
vn -0.485616 0.872104 0.060091
v -0.058746 0.016945 0.066887
vn -0.729127 -0.115834 0.674504
v -0.066513 -0.016853 0.059151
vn -0.553464 0.691957 0.463543
v -0.068085 0.016945 0.057304
vn -0.818296 -0.171715 0.548548
v -0.075134 -0.016853 0.047676
vn -0.682270 -0.502968 0.530595
v -0.068085 -0.016853 0.057304
vn 0.028670 0.873257 0.486416
v -0.055435 0.016945 0.069679
vn -0.489662 -0.438082 0.753867
v -0.055435 -0.016853 0.069679
vn -0.259570 0.459024 0.849659
v -0.062607 0.016945 0.075928
vn 0.024762 -0.176861 0.983924
v -0.060898 0.008896 0.074432
vn -0.841980 -0.092340 0.531549
v -0.033920 0.015055 0.091896
vn -0.701899 0.586751 0.403809
v -0.033920 0.016945 0.091896
vn -0.437037 0.871427 0.222741
v -0.032318 0.016945 0.083038
vn -0.861729 -0.175096 0.476197
v -0.033340 0.003500 0.088692
vn -0.406076 -0.450620 0.795012
v -0.032318 -0.016853 0.083038
vn -0.361828 0.690737 0.626070
v -0.044373 0.016945 0.077225
vn 0.618695 0.707078 0.342427
v -0.031311 0.016945 0.090080
vn 0.192375 0.873879 0.446462
v -0.028244 0.016945 0.084526
vn 0.324582 -0.104605 0.940056
v -0.032562 0.014906 0.092346
vn -0.184330 -0.608082 0.772178
v -0.028244 -0.016853 0.084526
vn 0.281306 0.585234 0.760505
v -0.032593 0.016945 0.092377
vn -0.043719 -0.504536 0.862283
v -0.001953 -0.016853 0.089172
vn -0.333684 0.871759 0.358735
v -0.001953 0.016945 0.089172
vn -0.069287 -0.121378 0.990185
v -0.003342 -0.016853 0.089127
vn -0.125300 0.691748 0.711185
v -0.015274 0.016945 0.087837
vn -0.222874 -0.135559 0.965376
v -0.017593 -0.016853 0.087395
vn -0.119864 -0.514317 0.849183
v -0.015274 -0.016853 0.087837
vn -0.675912 0.727263 0.119299
v 0.085144 0.016945 -0.014969
vn -0.686322 0.727298 0.000000
v 0.086456 0.016945 0.000000
vn -0.675912 0.727263 -0.119299
v 0.085144 0.016945 0.014969
vn -0.441088 0.727353 -0.525736
v 0.055664 0.016945 0.066032
vn -0.525864 0.727199 -0.441191
v 0.066284 0.016945 0.055405
vn -0.645000 0.727224 -0.234778
v 0.081253 0.016945 0.029480
vn -0.594361 0.727299 -0.343179
v 0.074905 0.016945 0.043098
vn 0.676104 0.727133 0.118997
v -0.084625 0.016945 -0.014969
vn 0.686306 0.727313 -0.000000
v -0.085938 0.016945 0.000000
vn 0.644787 0.727453 0.234655
v -0.080750 0.016945 -0.029480
vn 0.594533 0.727095 0.343313
v -0.074387 0.016945 -0.043098
vn -0.343250 0.727149 -0.594504
v 0.043350 0.016945 0.074646
vn -0.234787 0.727350 -0.644854
v 0.029739 0.016945 0.081001
vn -0.119157 0.727210 -0.675994
v 0.015228 0.016945 0.084885
vn 0.343312 0.727162 0.594451
v -0.042847 0.016945 -0.074638
vn 0.234798 0.727359 0.644840
v -0.029221 0.016945 -0.081001
vn 0.119153 0.727207 0.675998
v -0.014709 0.016945 -0.084885
vn 0.525727 0.727384 0.441047
v -0.065781 0.016945 -0.055405
vn 0.441011 0.727244 0.525952
v -0.055145 0.016945 -0.066032
vn 0.234663 0.727302 -0.644953
v -0.029221 0.016945 0.081001
vn 0.119153 0.727207 -0.675998
v -0.014709 0.016945 0.084885
vn 0.000002 0.727298 -0.686321
v 0.000259 0.016945 0.086197
vn 0.343241 0.727271 -0.594359
v -0.042847 0.016945 0.074646
vn 0.441161 0.727192 -0.525898
v -0.055145 0.016945 0.066032
vn 0.525727 0.727384 -0.441047
v -0.065781 0.016945 0.055405
vn 0.594533 0.727095 -0.343313
v -0.074387 0.016945 0.043098
vn -0.234922 0.727407 0.644741
v 0.029739 0.016945 -0.081001
vn -0.119157 0.727210 0.675994
v 0.015228 0.016945 -0.084885
vn 0.000002 0.727298 0.686321
v 0.000259 0.016945 -0.086197
vn 0.644787 0.727453 -0.234655
v -0.080750 0.016945 0.029480
vn 0.676104 0.727133 -0.118997
v -0.084625 0.016945 0.014969
vn -0.343321 0.727040 0.594595
v 0.043350 0.016945 -0.074638
vn -0.440939 0.727405 0.525790
v 0.055664 0.016945 -0.066032
vn -0.525864 0.727199 0.441191
v 0.066284 0.016945 -0.055405
vn -0.594361 0.727299 0.343179
v 0.074905 0.016945 -0.043098
vn -0.645000 0.727224 0.234778
v 0.081253 0.016945 -0.029480
vn 0.068858 -0.780729 0.621065
v 0.011002 -0.016945 0.088524
vn -0.043012 -0.780927 0.623139
v -0.003342 -0.016945 0.089104
vn -0.135364 -0.789847 0.598179
v -0.017578 -0.016945 0.087372
vn -0.212838 -0.794074 0.569339
v -0.031372 -0.016945 0.083374
vn -0.361895 -0.690560 0.626225
v -0.044373 -0.016945 0.077232
vn -0.387951 -0.793683 0.468574
v -0.056137 -0.016945 0.069077
vn -0.462846 -0.776824 0.426988
v -0.066498 -0.016945 0.059135
vn -0.485210 -0.811564 0.325477
v -0.075104 -0.016945 0.047661
vn -0.583028 -0.771688 0.254117
v -0.081787 -0.016945 0.034950
vn -0.572819 -0.805719 0.150651
v -0.086319 -0.016945 0.021339
vn -0.589094 -0.806779 0.045566
v -0.088623 -0.016945 0.007172
vn -0.588907 -0.806933 -0.045254
v -0.088623 -0.016945 -0.007172
vn -0.572742 -0.805789 -0.150567
v -0.086319 -0.016945 -0.021339
vn -0.654766 -0.698563 -0.288601
v -0.081741 -0.016945 -0.035110
vn -0.484073 -0.812038 -0.325986
v -0.075104 -0.016945 -0.047661
vn -0.460896 -0.777530 -0.427811
v -0.066498 -0.016945 -0.059135
vn -0.386783 -0.794636 -0.467924
v -0.056137 -0.016945 -0.069069
vn -0.307215 -0.788212 -0.533237
v -0.044327 -0.016945 -0.077225
vn -0.212098 -0.794096 -0.569585
v -0.031372 -0.016945 -0.083374
vn -0.128802 -0.812992 -0.567851
v -0.017578 -0.016945 -0.087364
vn -0.043973 -0.781327 -0.622571
v -0.003342 -0.016945 -0.089104
vn 0.069287 -0.780714 -0.621036
v 0.011002 -0.016945 -0.088524
vn 0.166111 -0.778469 -0.605305
v 0.025070 -0.016945 -0.085655
vn 0.261515 -0.794150 -0.548576
v 0.038483 -0.016945 -0.080566
vn 0.364478 -0.767729 -0.527019
v 0.050919 -0.016945 -0.073387
vn 0.444901 -0.775476 -0.447997
v 0.062027 -0.016945 -0.064308
vn 0.507238 -0.777112 -0.372569
v 0.071548 -0.016945 -0.053566
vn 0.530359 -0.806471 -0.261388
v 0.079208 -0.016945 -0.041443
vn 0.566073 -0.805643 -0.174643
v 0.084839 -0.016945 -0.028236
vn 0.599435 -0.794134 -0.100145
v 0.088272 -0.016945 -0.014305
vn 0.664921 -0.746914 0.000229
v 0.089432 -0.016945 0.000000
vn 0.599902 -0.793853 0.099574
v 0.088272 -0.016945 0.014305
vn 0.566074 -0.805459 0.175488
v 0.084839 -0.016945 0.028236
vn 0.530427 -0.806827 0.260148
v 0.079208 -0.016945 0.041443
vn 0.507385 -0.777111 0.372370
v 0.071548 -0.016945 0.053566
vn 0.429088 -0.793299 0.431927
v 0.062027 -0.016945 0.064308
vn 0.364240 -0.767648 0.527300
v 0.050919 -0.016945 0.073387
vn 0.261765 -0.794195 0.548392
v 0.038483 -0.016945 0.080566
vn 0.165663 -0.778546 0.605328
v 0.025070 -0.016945 0.085655
vn 0.637732 -0.770258 0.000000
v -0.006683 -0.016945 0.000000
vn 0.552750 -0.770063 0.318545
v -0.005753 -0.016945 -0.003471
vn 0.319064 -0.770504 0.551835
v -0.003220 -0.016945 -0.006012
vn -0.000345 -0.770318 0.637660
v 0.000259 -0.016945 -0.006943
vn -0.318858 -0.769990 0.552671
v 0.003723 -0.016945 -0.006012
vn 0.552750 -0.770063 -0.318545
v -0.005753 -0.016945 0.003471
vn 0.319064 -0.770504 -0.551835
v -0.003220 -0.016945 0.006012
vn -0.551879 -0.770405 0.319228
v 0.006271 -0.016945 -0.003471
vn -0.637649 -0.770327 -0.000000
v 0.007202 -0.016945 0.000000
vn -0.551879 -0.770405 -0.319228
v 0.006271 -0.016945 0.003471
vn -0.000345 -0.770318 -0.637660
v 0.000259 -0.016945 0.006943
vn -0.318858 -0.769990 -0.552671
v 0.003723 -0.016945 0.006012
vn -0.555914 0.688062 0.466402
v 0.066284 -0.013945 -0.055405
vn -0.628496 0.687972 0.362888
v 0.074905 -0.013945 -0.043098
vn -0.551879 0.770405 0.319228
v 0.006271 -0.013945 -0.003471
vn -0.681904 0.688039 0.248211
v 0.081253 -0.013945 -0.029480
vn -0.714660 0.688004 0.126138
v 0.085144 -0.013945 -0.014969
vn -0.637649 0.770327 0.000000
v 0.007202 -0.013945 0.000000
vn 0.682103 0.687834 -0.248235
v -0.080750 -0.013945 0.029480
vn 0.714613 0.688120 -0.125775
v -0.084625 -0.013945 0.014969
vn 0.552750 0.770063 -0.318545
v -0.005753 -0.013945 0.003471
vn 0.637732 0.770258 -0.000000
v -0.006683 -0.013945 0.000000
vn 0.362927 0.687997 -0.628447
v -0.042847 -0.013945 0.074646
vn 0.466362 0.688068 -0.555940
v -0.055145 -0.013945 0.066032
vn 0.319064 0.770504 -0.551835
v -0.003220 -0.013945 0.006012
vn 0.556050 0.687895 -0.466486
v -0.065781 -0.013945 0.055405
vn 0.628330 0.688155 -0.362829
v -0.074387 -0.013945 0.043098
vn 0.248323 0.687917 0.681986
v -0.029221 -0.013945 -0.081001
vn 0.125965 0.688054 0.714643
v -0.014709 -0.013945 -0.084885
vn 0.319064 0.770504 0.551835
v -0.003220 -0.013945 -0.006012
vn -0.000345 0.770318 0.637660
v 0.000259 -0.013945 -0.006943
vn 0.628330 0.688155 0.362829
v -0.074387 -0.013945 -0.043098
vn 0.556050 0.687895 0.466486
v -0.065781 -0.013945 -0.055405
vn 0.552750 0.770063 0.318545
v -0.005753 -0.013945 -0.003471
vn 0.466269 0.688021 0.556076
v -0.055145 -0.013945 -0.066032
vn 0.362895 0.688094 0.628358
v -0.042847 -0.013945 -0.074638
vn 0.725750 0.687958 0.000000
v -0.085938 -0.013945 0.000000
vn 0.714613 0.688120 0.125775
v -0.084625 -0.013945 -0.014969
vn 0.682103 0.687834 0.248235
v -0.080750 -0.013945 -0.029480
vn -0.681904 0.688039 -0.248211
v 0.081253 -0.013945 0.029480
vn -0.551879 0.770405 -0.319228
v 0.006271 -0.013945 0.003471
vn -0.714661 0.688004 -0.126138
v 0.085144 -0.013945 0.014969
vn -0.725737 0.687972 0.000000
v 0.086456 -0.013945 0.000000
vn -0.466397 0.687876 0.556148
v 0.055664 -0.013945 -0.066032
vn -0.318858 0.769990 0.552671
v 0.003723 -0.013945 -0.006012
vn -0.362783 0.688204 0.628302
v 0.043350 -0.013945 -0.074638
vn 0.000002 0.687972 0.725737
v 0.000259 -0.013945 -0.086197
vn -0.125970 0.688052 0.714644
v 0.015228 -0.013945 -0.084885
vn -0.248487 0.687874 0.681970
v 0.029739 -0.013945 -0.081001
vn -0.000345 0.770318 -0.637660
v 0.000259 -0.013945 0.006943
vn 0.125965 0.688054 -0.714643
v -0.014709 -0.013945 0.084885
vn 0.248142 0.687969 -0.682001
v -0.029221 -0.013945 0.081001
vn -0.362815 0.688106 -0.628391
v 0.043350 -0.013945 0.074646
vn -0.248306 0.687925 -0.681984
v 0.029739 -0.013945 0.081001
vn -0.318858 0.769990 -0.552671
v 0.003723 -0.013945 0.006012
vn -0.125970 0.688052 -0.714644
v 0.015228 -0.013945 0.084885
vn 0.000002 0.687972 -0.725737
v 0.000259 -0.013945 0.086197
vn -0.628496 0.687972 -0.362888
v 0.074905 -0.013945 0.043098
vn -0.555914 0.688062 -0.466402
v 0.066284 -0.013945 0.055405
vn -0.466490 0.687923 -0.556012
v 0.055664 -0.013945 0.066032
# 375 vertices, 0 vertices normals

f 1//1 5//5 2//2
f 1//1 2//2 3//3
f 4//4 7//7 5//5
f 5//5 7//7 6//6
f 5//5 6//6 2//2
f 8//8 7//7 4//4
f 8//8 4//4 9//9
f 11//11 10//10 22//22
f 11//11 22//22 12//12
f 14//14 13//13 11//11
f 14//14 11//11 12//12
f 13//13 14//14 15//15
f 15//15 14//14 16//16
f 1//1 3//3 17//17
f 1//1 17//17 16//16
f 16//16 17//17 18//18
f 16//16 18//18 15//15
f 19//19 22//22 20//20
f 19//19 20//20 21//21
f 22//22 23//23 20//20
f 22//22 10//10 23//23
f 25//25 24//24 36//36
f 25//25 36//36 26//26
f 28//28 27//27 25//25
f 28//28 25//25 26//26
f 27//27 28//28 29//29
f 29//29 28//28 30//30
f 19//19 21//21 31//31
f 19//19 31//31 30//30
f 30//30 31//31 32//32
f 30//30 32//32 29//29
f 33//33 36//36 37//37
f 33//33 37//37 34//34
f 36//36 35//35 37//37
f 36//36 24//24 35//35
f 39//39 38//38 50//50
f 39//39 50//50 40//40
f 42//42 41//41 39//39
f 42//42 39//39 40//40
f 43//43 41//41 42//42
f 43//43 42//42 44//44
f 33//33 34//34 45//45
f 33//33 45//45 44//44
f 44//44 45//45 46//46
f 44//44 46//46 43//43
f 47//47 50//50 48//48
f 47//47 48//48 49//49
f 50//50 38//38 48//48
f 52//52 51//51 53//53
f 52//52 53//53 54//54
f 56//56 55//55 52//52
f 56//56 52//52 54//54
f 57//57 55//55 56//56
f 57//57 56//56 58//58
f 47//47 49//49 59//59
f 47//47 59//59 58//58
f 58//58 59//59 60//60
f 58//58 60//60 57//57
f 61//61 63//63 64//64
f 61//61 64//64 62//62
f 63//63 51//51 64//64
f 63//63 53//53 51//51
f 65//65 77//77 66//66
f 65//65 66//66 67//67
f 65//65 67//67 68//68
f 65//65 68//68 69//69
f 69//69 68//68 70//70
f 70//70 68//68 71//71
f 71//71 68//68 72//72
f 71//71 72//72 62//62
f 62//62 72//72 61//61
f 74//74 73//73 75//75
f 74//74 75//75 76//76
f 73//73 77//77 75//75
f 73//73 66//66 77//77
f 78//78 89//89 79//79
f 81//81 80//80 78//78
f 81//81 78//78 79//79
f 80//80 81//81 82//82
f 82//82 81//81 83//83
f 74//74 76//76 84//84
f 74//74 84//84 83//83
f 83//83 84//84 85//85
f 83//83 85//85 82//82
f 86//86 90//90 87//87
f 86//86 87//87 88//88
f 91//91 102//102 103//103
f 91//91 103//103 92//92
f 94//94 93//93 91//91
f 94//94 91//91 92//92
f 93//93 94//94 95//95
f 95//95 94//94 96//96
f 86//86 88//88 97//97
f 86//86 97//97 96//96
f 96//96 97//97 98//98
f 96//96 98//98 95//95
f 99//99 104//104 100//100
f 99//99 100//100 101//101
f 103//103 102//102 104//104
f 104//104 102//102 105//105
f 104//104 105//105 100//100
f 107//107 106//106 118//118
f 107//107 118//118 108//108
f 110//110 109//109 107//107
f 110//110 107//107 108//108
f 109//109 110//110 111//111
f 111//111 110//110 112//112
f 99//99 101//101 113//113
f 99//99 113//113 112//112
f 112//112 113//113 114//114
f 112//112 114//114 111//111
f 115//115 116//116 117//117
f 118//118 106//106 115//115
f 115//115 106//106 116//116
f 119//119 129//129 127//127
f 119//119 127//127 120//120
f 122//122 121//121 119//119
f 122//122 119//119 120//120
f 123//123 121//121 122//122
f 123//123 122//122 124//124
f 115//115 117//117 125//125
f 115//115 125//125 124//124
f 124//124 125//125 126//126
f 124//124 126//126 123//123
f 128//128 127//127 129//129
f 128//128 129//129 130//130
f 132//132 131//131 143//143
f 132//132 143//143 133//133
f 135//135 134//134 132//132
f 135//135 132//132 133//133
f 136//136 134//134 135//135
f 136//136 135//135 137//137
f 128//128 130//130 138//138
f 128//128 138//138 137//137
f 137//137 138//138 139//139
f 137//137 139//139 136//136
f 140//140 143//143 141//141
f 140//140 141//141 142//142
f 143//143 131//131 141//141
f 145//145 144//144 156//156
f 145//145 156//156 146//146
f 145//145 146//146 147//147
f 145//145 147//147 148//148
f 148//148 147//147 149//149
f 149//149 147//147 150//150
f 150//150 147//147 151//151
f 150//150 151//151 142//142
f 142//142 151//151 140//140
f 153//153 152//152 154//154
f 153//153 154//154 155//155
f 156//156 144//144 152//152
f 152//152 144//144 154//154
f 157//157 158//158 159//159
f 161//161 160//160 157//157
f 161//161 157//157 159//159
f 160//160 161//161 162//162
f 162//162 161//161 163//163
f 153//153 155//155 164//164
f 153//153 164//164 163//163
f 163//163 164//164 165//165
f 163//163 165//165 162//162
f 166//166 169//169 170//170
f 166//166 170//170 167//167
f 169//169 168//168 170//170
f 171//171 172//172 173//173
f 175//175 174//174 171//171
f 175//175 171//171 173//173
f 174//174 175//175 176//176
f 176//176 175//175 177//177
f 166//166 167//167 290//290
f 166//166 290//290 177//177
f 177//177 290//290 178//178
f 177//177 178//178 176//176
f 180//180 179//179 183//183
f 180//180 183//183 181//181
f 182//182 183//183 179//179
f 184//184 185//185 186//186
f 188//188 187//187 184//184
f 188//188 184//184 186//186
f 187//187 188//188 189//189
f 189//189 188//188 190//190
f 180//180 181//181 191//191
f 180//180 191//191 190//190
f 190//190 191//191 192//192
f 190//190 192//192 189//189
f 194//194 193//193 197//197
f 194//194 197//197 195//195
f 196//196 197//197 193//193
f 198//198 209//209 206//206
f 198//198 206//206 199//199
f 201//201 200//200 198//198
f 201//201 198//198 199//199
f 202//202 200//200 201//201
f 202//202 201//201 203//203
f 194//194 195//195 204//204
f 194//194 204//204 203//203
f 203//203 204//204 205//205
f 203//203 205//205 202//202
f 207//207 206//206 210//210
f 207//207 210//210 208//208
f 206//206 209//209 210//210
f 211//211 212//212 213//213
f 215//215 214//214 211//211
f 215//215 211//211 213//213
f 216//216 214//214 215//215
f 216//216 215//215 217//217
f 207//207 208//208 218//218
f 207//207 218//218 217//217
f 217//217 218//218 219//219
f 217//217 219//219 216//216
f 220//220 223//223 221//221
f 220//220 222//222 223//223
f 224//224 232//232 234//234
f 224//224 234//234 225//225
f 224//224 225//225 226//226
f 224//224 226//226 227//227
f 227//227 226//226 228//228
f 228//228 226//226 281//281
f 281//281 226//226 229//229
f 281//281 229//229 221//221
f 221//221 229//229 220//220
f 231//231 230//230 232//232
f 231//231 232//232 233//233
f 234//234 232//232 230//230
f 236//236 235//235 8//8
f 236//236 8//8 9//9
f 235//235 236//236 237//237
f 237//237 236//236 238//238
f 231//231 233//233 239//239
f 231//231 239//239 238//238
f 238//238 239//239 240//240
f 238//238 240//240 237//237
f 68//68 241//241 242//242
f 68//68 242//242 72//72
f 72//72 242//242 243//243
f 63//63 61//61 56//56
f 63//63 56//56 54//54
f 63//63 54//54 53//53
f 245//245 244//244 44//44
f 61//61 72//72 243//243
f 61//61 243//243 56//56
f 56//56 243//243 246//246
f 56//56 246//246 58//58
f 58//58 246//246 247//247
f 58//58 247//247 47//47
f 47//47 247//247 245//245
f 47//47 245//245 42//42
f 42//42 245//245 44//44
f 249//249 248//248 190//190
f 180//180 190//190 248//248
f 180//180 248//248 175//175
f 175//175 248//248 250//250
f 175//175 250//250 177//177
f 177//177 250//250 251//251
f 169//169 166//166 161//161
f 169//169 161//161 159//159
f 169//169 159//159 168//168
f 168//168 159//159 158//158
f 73//73 68//68 67//67
f 73//73 67//67 66//66
f 50//50 47//47 42//42
f 50//50 42//42 40//40
f 36//36 33//33 28//28
f 36//36 28//28 26//26
f 33//33 44//44 244//244
f 33//33 244//244 28//28
f 28//28 244//244 252//252
f 28//28 252//252 30//30
f 30//30 252//252 253//253
f 30//30 253//253 19//19
f 19//19 253//253 254//254
f 22//22 19//19 14//14
f 22//22 14//14 12//12
f 193//193 194//194 188//188
f 193//193 188//188 196//196
f 196//196 188//188 186//186
f 196//196 186//186 185//185
f 179//179 180//180 175//175
f 179//179 175//175 182//182
f 182//182 175//175 173//173
f 182//182 173//173 172//172
f 152//152 153//153 147//147
f 152//152 147//147 146//146
f 152//152 146//146 156//156
f 151//151 255//255 256//256
f 151//151 256//256 140//140
f 140//140 256//256 257//257
f 166//166 177//177 251//251
f 166//166 251//251 161//161
f 161//161 251//251 258//258
f 161//161 258//258 163//163
f 163//163 258//258 259//259
f 163//163 259//259 153//153
f 153//153 259//259 255//255
f 153//153 255//255 147//147
f 147//147 255//255 151//151
f 261//261 260//260 238//238
f 14//14 19//19 254//254
f 14//14 254//254 16//16
f 16//16 254//254 262//262
f 16//16 262//262 1//1
f 1//1 262//262 261//261
f 1//1 261//261 236//236
f 236//236 261//261 238//238
f 231//231 238//238 260//260
f 231//231 260//260 226//226
f 226//226 260//260 263//263
f 226//226 263//263 229//229
f 229//229 263//263 264//264
f 220//220 229//229 264//264
f 220//220 264//264 215//215
f 215//215 264//264 265//265
f 215//215 265//265 217//217
f 217//217 265//265 266//266
f 143//143 140//140 135//135
f 143//143 135//135 133//133
f 268//268 267//267 124//124
f 135//135 140//140 257//257
f 135//135 257//257 137//137
f 137//137 257//257 269//269
f 137//137 269//269 128//128
f 128//128 269//269 268//268
f 128//128 268//268 122//122
f 122//122 268//268 124//124
f 5//5 1//1 236//236
f 5//5 236//236 9//9
f 5//5 9//9 4//4
f 230//230 231//231 226//226
f 230//230 226//226 225//225
f 230//230 225//225 234//234
f 220//220 215//215 213//213
f 220//220 213//213 222//222
f 222//222 213//213 212//212
f 206//206 207//207 201//201
f 206//206 201//201 199//199
f 207//207 217//217 266//266
f 207//207 266//266 201//201
f 201//201 266//266 270//270
f 201//201 270//270 203//203
f 203//203 270//270 271//271
f 203//203 271//271 194//194
f 194//194 271//271 249//249
f 194//194 249//249 188//188
f 188//188 249//249 190//190
f 127//127 128//128 122//122
f 127//127 122//122 120//120
f 115//115 124//124 267//267
f 115//115 267//267 110//110
f 110//110 267//267 272//272
f 110//110 272//272 112//112
f 112//112 272//272 273//273
f 115//115 110//110 118//118
f 118//118 110//110 108//108
f 99//99 112//112 273//273
f 99//99 273//273 94//94
f 94//94 273//273 274//274
f 94//94 274//274 96//96
f 96//96 274//274 275//275
f 86//86 96//96 275//275
f 86//86 275//275 81//81
f 81//81 275//275 276//276
f 81//81 276//276 83//83
f 83//83 276//276 241//241
f 83//83 241//241 74//74
f 74//74 241//241 68//68
f 74//74 68//68 73//73
f 104//104 99//99 94//94
f 104//104 94//94 92//92
f 104//104 92//92 103//103
f 90//90 86//86 81//81
f 90//90 81//81 79//79
f 90//90 79//79 89//89
f 278//278 277//277 235//235
f 278//278 235//235 237//237
f 7//7 8//8 6//6
f 6//6 8//8 235//235
f 2//2 6//6 235//235
f 2//2 235//235 3//3
f 3//3 235//235 277//277
f 278//278 237//237 240//240
f 278//278 240//240 279//279
f 279//279 240//240 239//239
f 227//227 232//232 224//224
f 279//279 239//239 233//233
f 279//279 233//233 280//280
f 280//280 233//233 232//232
f 232//232 227//227 280//280
f 280//280 227//227 228//228
f 280//280 228//228 281//281
f 283//283 282//282 214//214
f 283//283 214//214 216//216
f 222//222 212//212 211//211
f 222//222 211//211 223//223
f 223//223 211//211 214//214
f 223//223 214//214 282//282
f 223//223 282//282 221//221
f 221//221 282//282 281//281
f 283//283 216//216 219//219
f 283//283 219//219 284//284
f 284//284 219//219 218//218
f 209//209 198//198 210//210
f 210//210 198//198 200//200
f 210//210 200//200 208//208
f 284//284 218//218 208//208
f 284//284 208//208 285//285
f 285//285 208//208 200//200
f 205//205 286//286 285//285
f 205//205 285//285 202//202
f 202//202 285//285 200//200
f 196//196 185//185 184//184
f 196//196 184//184 197//197
f 197//197 184//184 187//187
f 197//197 187//187 195//195
f 187//187 189//189 287//287
f 187//187 287//287 195//195
f 195//195 287//287 286//286
f 195//195 286//286 204//204
f 204//204 286//286 205//205
f 287//287 189//189 192//192
f 287//287 192//192 288//288
f 288//288 192//192 191//191
f 182//182 172//172 171//171
f 182//182 171//171 183//183
f 183//183 171//171 174//174
f 183//183 174//174 181//181
f 288//288 191//191 181//181
f 288//288 181//181 289//289
f 289//289 181//181 174//174
f 178//178 290//290 289//289
f 178//178 289//289 176//176
f 176//176 289//289 174//174
f 291//291 290//290 160//160
f 291//291 160//160 162//162
f 168//168 158//158 157//157
f 168//168 157//157 170//170
f 170//170 157//157 160//160
f 170//170 160//160 167//167
f 167//167 160//160 290//290
f 291//291 162//162 165//165
f 291//291 165//165 292//292
f 292//292 165//165 164//164
f 148//148 144//144 145//145
f 292//292 164//164 155//155
f 292//292 155//155 293//293
f 293//293 155//155 154//154
f 154//154 144//144 148//148
f 154//154 148//148 293//293
f 293//293 148//148 149//149
f 293//293 149//149 294//294
f 296//296 295//295 134//134
f 296//296 134//134 136//136
f 131//131 132//132 134//134
f 131//131 134//134 141//141
f 141//141 134//134 295//295
f 141//141 295//295 142//142
f 142//142 295//295 294//294
f 142//142 294//294 150//150
f 150//150 294//294 149//149
f 296//296 136//136 139//139
f 296//296 139//139 297//297
f 297//297 139//139 138//138
f 129//129 119//119 121//121
f 129//129 121//121 130//130
f 297//297 138//138 130//130
f 297//297 130//130 298//298
f 298//298 130//130 121//121
f 126//126 299//299 298//298
f 126//126 298//298 123//123
f 123//123 298//298 121//121
f 106//106 107//107 109//109
f 106//106 109//109 116//116
f 116//116 109//109 117//117
f 109//109 111//111 300//300
f 109//109 300//300 117//117
f 117//117 300//300 299//299
f 117//117 299//299 125//125
f 125//125 299//299 126//126
f 300//300 111//111 114//114
f 300//300 114//114 301//301
f 301//301 114//114 113//113
f 102//102 91//91 105//105
f 105//105 91//91 93//93
f 105//105 93//93 100//100
f 100//100 93//93 101//101
f 301//301 113//113 101//101
f 301//301 101//101 302//302
f 302//302 101//101 93//93
f 98//98 303//303 302//302
f 98//98 302//302 95//95
f 95//95 302//302 93//93
f 304//304 303//303 80//80
f 304//304 80//80 82//82
f 89//89 78//78 90//90
f 90//90 78//78 80//80
f 87//87 90//90 80//80
f 87//87 80//80 88//88
f 88//88 80//80 303//303
f 88//88 303//303 97//97
f 97//97 303//303 98//98
f 304//304 82//82 85//85
f 304//304 85//85 305//305
f 305//305 85//85 84//84
f 69//69 77//77 65//65
f 305//305 84//84 76//76
f 305//305 76//76 306//306
f 306//306 76//76 75//75
f 75//75 77//77 69//69
f 75//75 69//69 306//306
f 306//306 69//69 70//70
f 306//306 70//70 307//307
f 309//309 308//308 55//55
f 309//309 55//55 57//57
f 51//51 52//52 64//64
f 64//64 52//52 55//55
f 64//64 55//55 308//308
f 64//64 308//308 62//62
f 62//62 308//308 307//307
f 62//62 307//307 71//71
f 71//71 307//307 70//70
f 309//309 57//57 60//60
f 309//309 60//60 310//310
f 310//310 60//60 59//59
f 38//38 39//39 41//41
f 38//38 41//41 48//48
f 48//48 41//41 49//49
f 310//310 59//59 49//49
f 310//310 49//49 311//311
f 311//311 49//49 41//41
f 46//46 312//312 311//311
f 46//46 311//311 43//43
f 43//43 311//311 41//41
f 35//35 24//24 25//25
f 35//35 25//25 37//37
f 37//37 25//25 27//27
f 37//37 27//27 34//34
f 27//27 29//29 313//313
f 27//27 313//313 34//34
f 34//34 313//313 312//312
f 34//34 312//312 45//45
f 45//45 312//312 46//46
f 313//313 29//29 32//32
f 313//313 32//32 314//314
f 314//314 32//32 31//31
f 23//23 10//10 11//11
f 23//23 11//11 13//13
f 23//23 13//13 20//20
f 20//20 13//13 21//21
f 314//314 31//31 21//21
f 314//314 21//21 315//315
f 315//315 21//21 13//13
f 17//17 3//3 277//277
f 17//17 277//277 18//18
f 18//18 277//277 315//315
f 18//18 315//315 15//15
f 15//15 315//315 13//13
f 317//317 316//316 290//290
f 289//289 290//290 316//316
f 289//289 316//316 288//288
f 288//288 316//316 287//287
f 293//293 294//294 318//318
f 293//293 318//318 292//292
f 292//292 318//318 317//317
f 292//292 317//317 291//291
f 291//291 317//317 290//290
f 318//318 294//294 295//295
f 318//318 295//295 319//319
f 319//319 295//295 296//296
f 300//300 301//301 320//320
f 299//299 300//300 320//320
f 299//299 320//320 298//298
f 298//298 320//320 319//319
f 298//298 319//319 297//297
f 297//297 319//319 296//296
f 282//282 283//283 321//321
f 282//282 321//321 322//322
f 286//286 287//287 316//316
f 286//286 316//316 285//285
f 285//285 316//316 321//321
f 285//285 321//321 284//284
f 284//284 321//321 283//283
f 320//320 301//301 302//302
f 320//320 302//302 323//323
f 323//323 302//302 303//303
f 306//306 307//307 324//324
f 306//306 324//324 305//305
f 305//305 324//324 323//323
f 305//305 323//323 304//304
f 304//304 323//323 303//303
f 324//324 307//307 308//308
f 324//324 308//308 325//325
f 325//325 308//308 309//309
f 277//277 278//278 326//326
f 277//277 326//326 315//315
f 315//315 326//326 327//327
f 315//315 327//327 314//314
f 314//314 327//327 313//313
f 281//281 282//282 322//322
f 281//281 322//322 280//280
f 280//280 322//322 326//326
f 280//280 326//326 279//279
f 279//279 326//326 278//278
f 312//312 313//313 327//327
f 312//312 327//327 311//311
f 311//311 327//327 325//325
f 311//311 325//325 310//310
f 310//310 325//325 309//309
f 329//329 328//328 330//330
f 331//331 329//329 330//330
f 331//331 330//330 332//332
f 332//332 330//330 333//333
f 335//335 334//334 336//336
f 335//335 336//336 337//337
f 339//339 338//338 340//340
f 339//339 340//340 341//341
f 341//341 340//340 336//336
f 341//341 336//336 342//342
f 342//342 336//336 334//334
f 344//344 343//343 345//345
f 344//344 345//345 346//346
f 348//348 347//347 349//349
f 348//348 349//349 350//350
f 350//350 349//349 345//345
f 350//350 345//345 351//351
f 351//351 345//345 343//343
f 352//352 335//335 337//337
f 352//352 337//337 353//353
f 353//353 337//337 349//349
f 353//353 349//349 354//354
f 354//354 349//349 347//347
f 356//356 355//355 357//357
f 356//356 357//357 333//333
f 333//333 357//357 358//358
f 333//333 358//358 332//332
f 330//330 328//328 359//359
f 330//330 359//359 360//360
f 360//360 359//359 361//361
f 362//362 344//344 346//346
f 362//362 346//346 363//363
f 363//363 346//346 360//360
f 363//363 360//360 364//364
f 364//364 360//360 361//361
f 366//366 365//365 340//340
f 366//366 340//340 367//367
f 367//367 340//340 338//338
f 369//369 368//368 370//370
f 369//369 370//370 371//371
f 371//371 370//370 365//365
f 371//371 365//365 372//372
f 372//372 365//365 366//366
f 373//373 355//355 356//356
f 373//373 356//356 374//374
f 374//374 356//356 370//370
f 374//374 370//370 375//375
f 375//375 370//370 368//368
f 352//352 249//249 271//271
f 352//352 271//271 335//335
f 335//335 271//271 270//270
f 335//335 270//270 334//334
f 334//334 270//270 266//266
f 334//334 266//266 342//342
f 342//342 266//266 265//265
f 342//342 265//265 341//341
f 341//341 265//265 264//264
f 341//341 264//264 339//339
f 339//339 264//264 263//263
f 339//339 263//263 338//338
f 338//338 263//263 260//260
f 338//338 260//260 367//367
f 367//367 260//260 261//261
f 367//367 261//261 366//366
f 366//366 261//261 262//262
f 366//366 262//262 372//372
f 372//372 262//262 254//254
f 372//372 254//254 371//371
f 371//371 254//254 253//253
f 371//371 253//253 369//369
f 369//369 253//253 252//252
f 369//369 252//252 368//368
f 368//368 252//252 244//244
f 368//368 244//244 375//375
f 375//375 244//244 245//245
f 375//375 245//245 374//374
f 374//374 245//245 247//247
f 374//374 247//247 373//373
f 373//373 247//247 246//246
f 373//373 246//246 355//355
f 355//355 246//246 243//243
f 355//355 243//243 357//357
f 357//357 243//243 242//242
f 357//357 242//242 358//358
f 358//358 242//242 241//241
f 358//358 241//241 332//332
f 332//332 241//241 276//276
f 332//332 276//276 331//331
f 331//331 276//276 275//275
f 331//331 275//275 329//329
f 329//329 275//275 274//274
f 329//329 274//274 328//328
f 328//328 274//274 273//273
f 328//328 273//273 359//359
f 359//359 273//273 272//272
f 359//359 272//272 361//361
f 361//361 272//272 267//267
f 361//361 267//267 364//364
f 364//364 267//267 268//268
f 364//364 268//268 363//363
f 363//363 268//268 269//269
f 363//363 269//269 362//362
f 362//362 269//269 257//257
f 362//362 257//257 344//344
f 344//344 257//257 256//256
f 344//344 256//256 343//343
f 343//343 256//256 255//255
f 343//343 255//255 351//351
f 351//351 255//255 259//259
f 351//351 259//259 350//350
f 350//350 259//259 258//258
f 350//350 258//258 348//348
f 348//348 258//258 251//251
f 348//348 251//251 347//347
f 347//347 251//251 250//250
f 347//347 250//250 354//354
f 354//354 250//250 248//248
f 354//354 248//248 353//353
f 353//353 248//248 249//249
f 353//353 249//249 352//352
f 316//316 337//337 336//336
f 316//316 336//336 321//321
f 321//321 336//336 340//340
f 321//321 340//340 322//322
f 322//322 340//340 365//365
f 322//322 365//365 326//326
f 326//326 365//365 370//370
f 326//326 370//370 327//327
f 327//327 370//370 356//356
f 327//327 356//356 325//325
f 325//325 356//356 333//333
f 325//325 333//333 324//324
f 324//324 333//333 330//330
f 324//324 330//330 323//323
f 323//323 330//330 360//360
f 323//323 360//360 320//320
f 320//320 360//360 346//346
f 320//320 346//346 319//319
f 319//319 346//346 345//345
f 319//319 345//345 318//318
f 318//318 345//345 349//349
f 318//318 349//349 317//317
f 317//317 349//349 337//337
f 317//317 337//337 316//316
# 750 faces, 0 coords texture

# End of File